<svg width="132" height="30" viewBox="0 0 132 30" xmlns="http://www.w3.org/2000/svg"><title>Fill-1</title><path d="M38.619 17.851c-.517-.708-1.396-1.287-2.46-1.287-1.972 0-3.393 1.52-3.393 3.577 0 2.059 1.421 3.578 3.393 3.578.92 0 1.782-.397 2.232-.792a.138.138 0 0 0 .046-.105v-1.116a.127.127 0 0 0-.126-.127h-2.535a.184.184 0 0 1-.183-.185v-1.656c0-.102.082-.185.183-.185h4.546v-2.458l-1.468.812a.186.186 0 0 1-.235-.056zm-21.341 1.163h2.708c.775 0 1.26-.44 1.26-1.143 0-.67-.485-1.143-1.26-1.143h-2.708a.169.169 0 0 0-.168.17v1.947c0 .093.075.17.168.17zm11.01 6.415a.15.15 0 0 1-.15.152h-1.994a.151.151 0 0 1-.15-.152V14.838c0-.084.066-.152.15-.152h1.993c.083 0 .15.068.15.152v10.591zm-8.312-10.743h.51c2.053 0 3.103 1.323 3.103 2.776 0 1.131-.585 1.967-1.37 2.336a.166.166 0 0 0 .008.303c.915.378 1.572 1.368 1.572 2.523 0 1.65-1.067 2.957-3.134 2.957h-5.682a.169.169 0 0 1-.168-.17v-6.91L.148 29.342c-.28.208-.136.658.213.658h39.6c.2 0 .36-.163.36-.364v-5.483c-1.059.999-2.452 1.624-4.162 1.624-3.167 0-5.752-2.205-5.752-5.636 0-3.446 2.585-5.635 5.752-5.635 1.99 0 3.325.912 4.163 2.026V.365a.36.36 0 0 0-.573-.294L19.976 14.686zm-2.698 8.853h2.805c.856 0 1.373-.457 1.373-1.241 0-.686-.484-1.242-1.373-1.242h-2.805a.169.169 0 0 0-.168.17v2.143c0 .094.075.17.168.17zm34.536-.33l-1.236-.648a.177.177 0 0 0-.228.065c-.523.828-1.487 1.443-2.535 1.443-2.057 0-3.584-1.666-3.584-3.937 0-2.302 1.527-3.936 3.584-3.936 1.047 0 2.011.6 2.534 1.44.049.078.15.108.231.064l1.227-.676a.184.184 0 0 0 .069-.26c-.776-1.234-2.061-2.267-4.06-2.267-3.071 0-5.456 2.271-5.456 5.635 0 3.35 2.385 5.636 5.455 5.636 1.998 0 3.268-1.06 4.07-2.295a.183.183 0 0 0-.07-.264zm6.442.86c-2.106 0-3.448-1.698-3.448-3.936 0-2.254 1.342-3.937 3.448-3.937 2.09 0 3.448 1.683 3.448 3.937 0 2.238-1.357 3.936-3.448 3.936zm-1.473-9.381c-2.317.626-3.847 2.734-3.847 5.445 0 3.25 2.2 5.635 5.32 5.635 2.657 0 4.663-1.747 5.186-4.288.852-4.14-2.743-7.85-6.659-6.792zm19.735-.011h-2.365c-.105 0-.2.065-.238.164l-2.86 7.476-2.877-7.477a.256.256 0 0 0-.238-.163h-2.366a.128.128 0 0 0-.126.128v10.64c0 .07.056.127.126.127h1.637c.07 0 .127-.057.127-.128V17.16l3.29 8.354a.09.09 0 0 0 .084.058h.685a.09.09 0 0 0 .084-.058l3.274-8.354v8.284c0 .07.056.128.126.128h1.637c.07 0 .127-.057.127-.128V14.805a.127.127 0 0 0-.127-.128zm24.177 0H93.7a.196.196 0 0 0-.195.197v10.501c0 .11.087.197.195.197h6.995a.196.196 0 0 0 .194-.197v-1.288a.196.196 0 0 0-.194-.197H95.59a.196.196 0 0 1-.195-.197v-2.645c0-.109.087-.197.195-.197h4.99a.196.196 0 0 0 .196-.197v-1.288a.196.196 0 0 0-.195-.197H95.59a.196.196 0 0 1-.195-.197v-2.416c0-.108.087-.197.195-.197h5.104a.196.196 0 0 0 .194-.197v-1.288a.196.196 0 0 0-.194-.197zm7.373 5.145h-2.408a.194.194 0 0 1-.193-.195v-3.073c0-.107.086-.195.193-.195h2.408c1.066 0 1.842.67 1.842 1.716 0 1.061-.776 1.747-1.842 1.747zm1.484 1.414c1.206-.307 2.297-1.352 2.297-3.145 0-2.026-1.406-3.414-3.539-3.414h-4.54a.194.194 0 0 0-.194.195v10.505c0 .108.087.195.193.195h1.504a.195.195 0 0 0 .194-.195V21.7c0-.108.086-.195.193-.195h1.587c.068 0 .131.036.166.096l2.263 3.875c.035.06.098.096.167.096h1.738a.195.195 0 0 0 .164-.297l-2.32-3.747c-.07-.115-.004-.259.127-.292zm17.145-4.877h5.113c.105 0 .19-.086.19-.192V14.87a.191.191 0 0 0-.19-.192h-7.004a.192.192 0 0 0-.19.192v10.51c0 .107.085.193.19.193h7.004c.105 0 .19-.086.19-.192v-1.298a.19.19 0 0 0-.19-.192h-5.113a.191.191 0 0 1-.19-.192v-2.654c0-.107.084-.193.19-.193h5c.105 0 .19-.086.19-.192v-1.298a.191.191 0 0 0-.19-.192h-5a.191.191 0 0 1-.19-.192v-2.425c0-.107.084-.193.19-.193zm-4.01 6.804l-1.236-.648a.177.177 0 0 0-.228.066c-.523.828-1.487 1.443-2.535 1.443-2.057 0-3.585-1.666-3.585-3.937 0-2.303 1.528-3.936 3.585-3.936 1.047 0 2.01.6 2.534 1.44.048.077.15.108.23.064l1.227-.676a.184.184 0 0 0 .069-.26c-.776-1.234-2.06-2.267-4.06-2.267-3.07 0-5.455 2.27-5.455 5.635 0 3.349 2.384 5.636 5.455 5.636 1.997 0 3.267-1.06 4.07-2.295a.183.183 0 0 0-.071-.265zm-32.21-8.486H88.11c-.105 0-.2.065-.238.164l-2.86 7.476-2.877-7.477a.256.256 0 0 0-.238-.163h-2.365a.128.128 0 0 0-.127.128v10.64c0 .07.057.127.127.127h1.637c.07 0 .127-.057.127-.128V17.16l3.29 8.354a.09.09 0 0 0 .084.058h.684a.09.09 0 0 0 .084-.058l3.274-8.354v8.284c0 .07.056.128.127.128h1.636c.07 0 .127-.057.127-.128V14.805a.127.127 0 0 0-.127-.128z" fill="#000" fill-rule="evenodd"/></svg>
