<svg id="logo" xmlns="http://www.w3.org/2000/svg" viewBox="0 0 1652 338">
    <title>logo-ionos-by-1and1-horizontal-color-white-thicker-by</title>
    <g id="logo-ionos-by-1and1-horizontal-color-white-thicker-by">
        <g id="_1and1" data-name="1and1">
            <rect id="bg" x="1425.053" y="105.025" width="226.771" height="226.771" style="fill:#FFF"/>
            <path id="fill"
                  d="M1518.37,241.428c-.168-5.569,3.5-11.48,12.661-17.54l19.567,26.023a21.265,21.265,0,0,1-14.425,5.427C1525.734,255.338,1518.635,249.911,1518.37,241.428Zm25.762-53.947c0-4.613-3.237-7.572-8.372-7.572-4.981,0-8.514,3.276-8.514,7.727,0,4.3,1.285,6.642,7.228,14.279C1541.522,196.823,1544.132,192.088,1544.132,187.481Zm-115.354-78.732H1648.1V328.071H1428.778Zm153.007,74.093H1598.3v86.71l20.62-.007V166.3h-37.138Zm-82.213,59.1c1.35,18.878,15.723,29.48,36.6,29.6,10.665.064,17.267-2.184,24.786-8.212l4.6,6.2h20.4l-13.19-17.5c6.266-7.953,8.307-16.191,8.307-29.235,0-.788-.22-4.006-.22-6.228H1564.28c.161,2.539.335,4.865.368,5.659.264,6.681-1.021,14.905-2.507,16.249L1544.3,214.274c12.047-10.021,15.961-17.108,15.961-26.644,0-13.044-10.122-22.561-24.411-22.561-15.419,0-26.3,9.355-26.3,22.083,0,7.475,1.911,11.6,11.226,23.53C1506.3,219.035,1498.758,230.652,1499.572,241.945Zm-49.843-59.1h16.517v86.71l20.626-.007V166.3h-37.143Z"
                  style="fill:#003d8f"/>
        </g>
        <path id="by"
              d="M1242.649,263.643v6.9h-10.5V167.5l10.5-5.249V201.4c4.95-5.4,12.9-9.3,20.4-9.3,19.2,0,31.649,14.85,31.649,40.048,0,25.949-11.55,40.2-30.749,40.2C1253.149,272.343,1247.6,267.843,1242.649,263.643Zm41.1-31.5c0-19.649-7.2-30.6-21.45-30.6-9.45,0-16.8,6.749-19.649,11.7v37.649c4.2,7.2,12,12,19.649,12C1276.7,262.893,1283.748,251.044,1283.748,232.144Zm47.251,36L1302.95,193.9H1313.6l19.35,54.447c.9,2.551,1.649,5.1,2.55,7.8l2.7-7.8,19.649-54.447h11.25l-39.148,105.746H1319.6Z"
              style="fill:#000000"/>
        <path id="ionos"
              d="M1065.573,336.158a84.71,84.71,0,0,1-16.989-1.718,88,88,0,0,1-58.06-41.465l-.316-.581c-6.285-12.564-2.151-27.344,9.605-34.4a25.152,25.152,0,0,1,12.92-3.572,25.589,25.589,0,0,1,22.253,13.068c.259.459.556.956.866,1.434l2.706,3.682,3.637,3.676a35.477,35.477,0,0,0,16.588,8.023,36.487,36.487,0,0,0,28.6-6.537,34.614,34.614,0,0,0,14.36-25.871,35.747,35.747,0,0,0-9.941-27.764s-76.832-79.8-80.279-83.5a94.175,94.175,0,0,1-9.265-11c-10.84-15.365-14.23-33.48-12.557-51.412a83.4,83.4,0,0,1,10.819-35.534s3.52-5.953,4.556-7.465c4.07-5.936,12.08-13.612,17.57-17.9a90.371,90.371,0,0,1,14.744-8.856,84.035,84.035,0,0,1,109.6,33.824,24.914,24.914,0,0,1,2.654,19.308A25.451,25.451,0,0,1,1137.5,77.275a24.414,24.414,0,0,1-12.455,3.385,25.379,25.379,0,0,1-22.1-13,33.4,33.4,0,0,0-22.364-15.806,34.631,34.631,0,0,0-27.117,6.1,33.05,33.05,0,0,0-12.829,23.92,33.616,33.616,0,0,0,9.153,25.935l78.549,81a87.834,87.834,0,0,1,24.36,66.922c-2.235,25.186-14.754,48.008-34.359,62.7a88.507,88.507,0,0,1-52.762,17.732m-248.6-.033a84.584,84.584,0,0,0,84.479-84.492V84.528a84.483,84.483,0,0,0-168.965,0V251.633a84.585,84.585,0,0,0,84.486,84.492m0-285.064c18.145,0,33.473,15.322,33.473,33.467V251.633a33.514,33.514,0,0,1-33.473,33.474A33.118,33.118,0,0,1,783.5,251.633V84.528a33.511,33.511,0,0,1,33.481-33.467M437.557,66.55V310.6a25.5,25.5,0,0,0,51.005,0V172.4Zm138.356,97.3V25.538a25.506,25.506,0,0,1,51.011,0V269.706ZM626.5,305.105v5.45a25.6,25.6,0,0,1-48.363,11.565L437.876,31.358v-5.82A25.273,25.273,0,0,1,452.421,2.613a25.232,25.232,0,0,1,34.051,11.892Zm-379.823,31.02a84.591,84.591,0,0,0,84.48-84.492V84.528a84.483,84.483,0,0,0-168.965,0V251.633a84.589,84.589,0,0,0,84.485,84.492m0-285.064a33.965,33.965,0,0,1,33.474,33.467V251.633a33.475,33.475,0,1,1-66.948,0V84.528a33.512,33.512,0,0,1,33.474-33.467M0,307.917a27.819,27.819,0,1,0,55.637,0V27.818A27.819,27.819,0,0,0,0,27.818Z"
              style="fill:#000000"/>
    </g>
</svg>
