<?xml version="1.0"?>
<svg xmlns="http://www.w3.org/2000/svg" height="42" viewBox="0 0 128 42" width="128">
  <path d="m.462 37.291c0-1.617.966-2.8665 2.5935-2.8665 1.533 0 2.499 1.1025 2.499 2.583 0 .168-.0105.315-.021.42h-4.137c.0105 1.176.756 1.8795 1.785 1.8795.609 0 1.1655-.2415 1.554-.735l.5985.546c-.5145.6195-1.2495 1.008-2.205 1.008-1.6905 0-2.667-1.218-2.667-2.835zm.9555-.5565h3.2235c-.063-1.0605-.777-1.5435-1.596-1.5435-.9345 0-1.554.6405-1.6275 1.5435zm11.4555-2.898-.7455.525c-.462-.7035-1.1865-1.113-2.1-1.113-1.575 0-2.5515 1.2075-2.5515 3.003 0 1.806.9975 3.003 2.5935 3.003.924 0 1.575-.399 2.0895-1.1235l.756.525c-.6825.966-1.617 1.4805-2.8455 1.4805-2.1735 0-3.591-1.617-3.591-3.885 0-2.247 1.407-3.885 3.549-3.885 1.2285 0 2.205.5355 2.8455 1.47zm6.0585 3.444c0 1.6275-1.008 2.8455-2.6145 2.8455-1.596 0-2.5935-1.218-2.5935-2.8455 0-1.6485.9975-2.856 2.5935-2.856 1.6065 0 2.6145 1.2075 2.6145 2.856zm-.945 0c0-1.1655-.609-2.058-1.6695-2.058-1.05 0-1.659.8925-1.659 2.058 0 1.1445.609 2.0475 1.659 2.0475 1.0605 0 1.6695-.903 1.6695-2.0475zm6.573 2.7195h-.882v-3.381c0-.7245-.2415-1.3755-1.113-1.3755-.8505 0-1.4805.672-1.4805 1.6485v3.108h-.882v-5.4495h.882v.7875c.3675-.5565.966-.9135 1.701-.9135.756 0 1.3335.3675 1.5855 1.0395.3675-.567 1.0395-1.0395 1.8585-1.0395 1.092 0 1.7955.7245 1.7955 1.9845v3.591h-.882v-3.381c0-.7245-.231-1.3755-1.113-1.3755-.84 0-1.47.672-1.47 1.6485zm9.387 0h-.882v-3.381c0-.7245-.2415-1.3755-1.113-1.3755-.8505 0-1.4805.672-1.4805 1.6485v3.108h-.882v-5.4495h.882v.7875c.3675-.5565.966-.9135 1.701-.9135.756 0 1.3335.3675 1.5855 1.0395.3675-.567 1.0395-1.0395 1.8585-1.0395 1.092 0 1.7955.7245 1.7955 1.9845v3.591h-.882v-3.381c0-.7245-.231-1.3755-1.113-1.3755-.84 0-1.47.672-1.47 1.6485zm4.683-2.709c0-1.617.966-2.8665 2.5935-2.8665 1.533 0 2.499 1.1025 2.499 2.583 0 .168-.0105.315-.021.42h-4.137c.0105 1.176.756 1.8795 1.785 1.8795.609 0 1.1655-.2415 1.554-.735l.5985.546c-.5145.6195-1.2495 1.008-2.205 1.008-1.6905 0-2.667-1.218-2.667-2.835zm.9555-.5565h3.2235c-.063-1.0605-.777-1.5435-1.596-1.5435-.9345 0-1.554.6405-1.6275 1.5435zm8.5785-2.1-.21.8085c-.1575-.0945-.42-.147-.651-.147-.777 0-1.4595.63-1.4595 1.9005v2.8035h-.882v-5.4495h.882v.798c.3045-.525.9135-.903 1.5855-.903.3255 0 .5985.0945.735.189zm5.229.9135-.6615.462c-.315-.483-.8085-.777-1.428-.777-1.071 0-1.7325.8505-1.7325 2.037 0 1.197.6615 2.037 1.7325 2.037.6615 0 1.1445-.315 1.4595-.777l.651.4935c-.462.651-1.197 1.1025-2.163 1.1025-1.596 0-2.6145-1.2285-2.6145-2.856 0-1.617 1.029-2.8455 2.6145-2.8455.9765 0 1.701.462 2.142 1.1235zm.819 1.743c0-1.617.966-2.8665 2.5935-2.8665 1.533 0 2.499 1.1025 2.499 2.583 0 .168-.0105.315-.021.42h-4.137c.0105 1.176.756 1.8795 1.785 1.8795.609 0 1.1655-.2415 1.554-.735l.5985.546c-.5145.6195-1.2495 1.008-2.205 1.008-1.6905 0-2.667-1.218-2.667-2.835zm.9555-.5565h3.2235c-.063-1.0605-.777-1.5435-1.596-1.5435-.9345 0-1.554.6405-1.6275 1.5435zm8.211-4.2315h.882v2.898c.441-.6825 1.1445-.9765 1.8585-.9765 1.512 0 2.4675 1.2285 2.4675 2.8455s-.966 2.856-2.4675 2.856c-.7245 0-1.4175-.3045-1.8585-.9765v.8505h-.882zm.882 4.7775c0 1.134.609 2.0265 1.722 2.0265s1.6695-.8925 1.6695-2.0265c0-1.1235-.546-2.0475-1.6695-2.0475s-1.722.924-1.722 2.0475zm5.4495 4.536.1995-.735c.105.0525.231.084.3465.084.4095 0 .651-.2625 1.008-1.1865l-2.142-5.4285h.9975l1.6065 4.326 1.596-4.326h.966l-2.205 5.586c-.5145 1.3125-.903 1.7955-1.722 1.7955-.315 0-.546-.063-.651-.1155zm10.1283072.1835c-1.0152519 0-1.8378072-.8224837-1.8378072-1.8386057v-7.3227886c0-1.0151634.8225553-1.8386057 1.8378072-1.8386057h7.3243856c1.0142932 0 1.8378072.8234423 1.8378072 1.8386057v7.3227886c0 1.016122-.823514 1.8386057-1.8378072 1.8386057zm.1620185-8.4194336v5.8388672c0 .3201742.2588461.5799564.5790483.5799564h5.839376c.3211608 0 .5809656-.2597822.5809656-.5799564v-5.8388672c0-.3211328-.2598048-.580915-.5809656-.580915h-5.839376c-.3202022 0-.5790483.2597822-.5790483.580915zm4.6668991 1.419695c.1840683 0 .3336238.1495425.3336238.335512v2.3303704c0 .1850109-.1495555.3345534-.3336238.3345534h-2.3334496c-.185027 0-.3326651-.1495425-.3326651-.3345534v-2.3303704c0-.1859695.1476381-.335512.3326651-.335512zm10.4412752-1.7727614c-.861 0-1.575.4095-1.575 1.155 0 .504.3465.7875.882.987 1.176.4515 3.5175.567 3.5175 2.499 0 1.302-1.0395 2.268-2.73 2.268-1.2495 0-2.2785-.5355-2.8455-1.428l.7665-.5355c.5145.8295 1.386 1.1025 2.1315 1.1025 1.05 0 1.722-.525 1.722-1.3335 0-.8505-.7455-1.071-1.8165-1.344-1.2285-.2835-2.583-.6825-2.583-2.1525 0-1.365 1.197-2.079 2.5725-2.079 1.071 0 2.0055.4305 2.6145 1.239l-.7245.5355c-.441-.567-1.1235-.9135-1.932-.9135zm9.177 8.5995h-.882v-2.6775c-.4515.6825-1.1445.9765-1.869.9765-1.512 0-2.457-1.2285-2.457-2.8455s.9555-2.856 2.457-2.856c.735 0 1.4175.3045 1.869.9765v-.8505h.882zm-.882-4.557c0-1.134-.609-2.037-1.7325-2.037-1.1025 0-1.659.903-1.659 2.037 0 1.1235.546 2.037 1.659 2.037 1.134 0 1.7325-.9135 1.7325-2.037zm6.321-2.7195h.882v5.4495h-.882v-.819c-.378.567-1.0185.945-1.8165.945-1.134 0-1.869-.756-1.869-2.0475v-3.528h.8925v3.318c0 .756.231 1.428 1.176 1.428.924 0 1.617-.6825 1.617-1.7115zm6.7725 5.4495h-.861v-.672c-.3885.546-.9555.798-1.68.798-1.1445 0-1.89-.6195-1.89-1.659 0-1.2915 1.1235-1.5225 1.827-1.638.819-.126 1.722-.189 1.722-.8715 0-.567-.6195-.7455-1.176-.7455-.546 0-1.239.1785-1.722.567l-.399-.672c.5565-.4095 1.344-.6825 2.1735-.6825 1.1865 0 2.0055.5355 2.0055 1.659zm-.882-2.142v-.8085c-.378.273-.9975.357-1.5435.4515-.63.1155-1.1025.273-1.1025.9135 0 .672.5145.9345 1.1235.9345.777 0 1.5225-.4305 1.5225-1.491zm5.8695-3.2235-.21.8085c-.1575-.0945-.42-.147-.651-.147-.777 0-1.4595.63-1.4595 1.9005v2.8035h-.882v-5.4495h.882v.798c.3045-.525.9135-.903 1.5855-.903.3255 0 .5985.0945.735.189zm.6825 2.6565c0-1.617.966-2.8665 2.5935-2.8665 1.533 0 2.499 1.1025 2.499 2.583 0 .168-.0105.315-.021.42h-4.137c.0105 1.176.756 1.8795 1.785 1.8795.609 0 1.1655-.2415 1.554-.735l.5985.546c-.5145.6195-1.2495 1.008-2.205 1.008-1.6905 0-2.667-1.218-2.667-2.835zm.9555-.5565h3.2235c-.063-1.0605-.777-1.5435-1.596-1.5435-.9345 0-1.554.6405-1.6275 1.5435zm-44.8112434-27.93564286c1.1502869-1.44114285 2.9185711-2.22914285 5.0302497-2.22914285 4.5092375 0 7.6589937 3.65942861 7.6589937 8.89885711 0 5.2771429-3.1497562 8.9628572-7.6589937 8.9628572-2.0998374 0-3.8692494-.7988572-5.0302497-2.26v1.8782857h-4.3107566v-24.0497143h4.3107566zm4.1421606 11.81314286c2.9834157 0 4.0463033-2.624 4.0463033-5.0794286 0-2.4862857-1.0628876-5.1428571-4.0463033-5.1428571-2.8610568 0-4.1421606 2.5834286-4.1421606 5.1428571 0 3.0851429 1.625626 5.0794286 4.1421606 5.0794286zm9.5470828 3.4382857v-24.0502857h4.3685714v24.0502857zm-36.8765232-9.0638437-.0022857 1.6394286h-12.0822857c.0902857 2.4411428 1.7462857 3.9497143 4.3542857 3.9497143 1.7548571 0 3.2394285-.6971429 4.2925714-2.0177143l.0965714-.1211429 2.8154286 2.652-.0868571.1034286c-1.8228572 2.1674286-4.2937143 3.2662857-7.3422858 3.2662857-5.3405714 0-8.7914285-3.48-8.7914285-8.8668571 0-5.38 3.4297143-8.99428574 8.5337143-8.99428574 4.912 0 8.2125714 3.37142857 8.2125714 8.38914284zm-11.9457143-1.5897143h7.7462857c-.3931428-1.8697143-1.8131428-2.9805714-3.8297143-2.9805714-2 0-3.4862857 1.1365714-3.9165714 2.9805714zm29.5612 1.5897143-.0022857 1.6394286h-12.0822857c.0902857 2.4411428 1.7462857 3.9497143 4.3542857 3.9497143 1.7548571 0 3.2394286-.6971429 4.2925714-2.0177143l.0965714-.1211429 2.8154286 2.652-.0868571.1034286c-1.8228572 2.1674286-4.2937143 3.2662857-7.3422857 3.2662857-5.3405715 0-8.7914286-3.48-8.7914286-8.8668571 0-5.38 3.4297143-8.99428574 8.5337143-8.99428574 4.912 0 8.2125714 3.37142857 8.2125714 8.38914284zm-11.9457143-1.5897143h7.7462857c-.3931428-1.8697143-1.8131428-2.9805714-3.8297143-2.9805714-2 0-3.4862857 1.1365714-3.9165714 2.9805714zm-26.7893143-6.41851425h4.6405715l-4.6754286 17.09885715h-4.9628572l-3.1405714-10.9942857-3.2028571 10.9942857h-4.98l-.0285715-.1057143-4.6148571-16.99314285h4.672l2.6017143 10.88857145 3.1577143-10.88857145h4.8062857l3.1571428 10.88514285zm76.2958441.02178655h4.680571l-9.156 23.9891429h-4.190285l2.598857-6.9377143-6.7731432-17.0514286h4.9091432l3.980571 11.3942857z" fill="#323b43" fill-rule="evenodd" transform=""/>
</svg>
