<svg xmlns="http://www.w3.org/2000/svg" version="1.1" xmlns:xlink="http://www.w3.org/1999/xlink" xmlns:svgjs="http://svgjs.com/svgjs" width="512" height="512" x="0" y="0" viewBox="0 0 64 64" style="enable-background:new 0 0 512 512" xml:space="preserve" class=""><g><g data-name="Layer 6"><path d="M50 20a11.986 11.986 0 0 0-2.458.254 15.983 15.983 0 0 0-31.084 0A12 12 0 1 0 14 44h5v9a3 3 0 0 0 3 3h20a3 3 0 0 0 3-3v-9h5a12 12 0 0 0 0-24Zm-7 33a1 1 0 0 1-1 1H22a1 1 0 0 1-1-1V39a1 1 0 0 1 1-1h20a1 1 0 0 1 1 1Zm-4-17h-2v-3a5 5 0 0 0-10 0v3h-2v-3a7 7 0 0 1 14 0Zm-10 0v-3a3 3 0 0 1 6 0v3Zm21 6h-5v-3a3 3 0 0 0-3-3h-1v-3a9 9 0 0 0-18 0v3h-1a3 3 0 0 0-3 3v3h-5a10 10 0 1 1 2.935-19.561 1 1 0 0 0 1.279-.789 13.982 13.982 0 0 1 27.572 0 1 1 0 0 0 1.279.789A10 10 0 1 1 50 42Z" fill="#ffffff" data-original="#000000" class="" opacity="1"></path><path d="M32 40a3.983 3.983 0 0 0-3.325 6.2l-.665 4.656A1 1 0 0 0 29 52h6a1 1 0 0 0 .99-1.142l-.665-4.658A3.983 3.983 0 0 0 32 40Zm1.847 10h-3.694l.561-3.925a1 1 0 0 0-.229-.789A1.98 1.98 0 0 1 30 44a2 2 0 0 1 4 0 1.98 1.98 0 0 1-.485 1.286 1 1 0 0 0-.229.789Z" fill="#ffffff" data-original="#000000" class="" opacity="1"></path></g></g></svg>