<svg xmlns="http://www.w3.org/2000/svg" version="1.1" xmlns:xlink="http://www.w3.org/1999/xlink" width="512" height="512" x="0" y="0" viewBox="0 0 60 60" style="enable-background:new 0 0 512 512" xml:space="preserve"><g><path d="M16 60h28a5.006 5.006 0 0 0 5-5V5a5.006 5.006 0 0 0-5-5H16a5.006 5.006 0 0 0-5 5v50a5.006 5.006 0 0 0 5 5Zm28-2H16a3 3 0 0 1-3-3v-9h34v9a3 3 0 0 1-3 3ZM13 44V20h34v24ZM38.72 2l-.311 1.242a1 1 0 0 1-.971.758H22.562a1 1 0 0 1-.971-.758L21.28 2ZM16 2h3.22l.431 1.728A3 3 0 0 0 22.562 6h14.876a3 3 0 0 0 2.911-2.272L40.78 2H44a3 3 0 0 1 3 3v13H13V5a3 3 0 0 1 3-3Z" fill="#ffffff" opacity="1" data-original="#000000"></path><path d="M19 15a3 3 0 1 0-3-3 3 3 0 0 0 3 3Zm0-4a1 1 0 1 1-1 1 1 1 0 0 1 1-1ZM19 49a3 3 0 1 0 3 3 3 3 0 0 0-3-3Zm0 4a1 1 0 1 1 1-1 1 1 0 0 1-1 1ZM43.242 34.263l-6.748-7.592a2.064 2.064 0 0 0-2.988 0l-6.549 7.367-2.543-2.538a2 2 0 0 0-2.828 0l-4.707 4.7A2.98 2.98 0 0 0 16 38.323V40a2 2 0 0 0 2 2h24a2 2 0 0 0 2-2v-3.745a3 3 0 0 0-.758-1.992ZM42 40H18v-1.677a1.007 1.007 0 0 1 .293-.707L23 32.909l2.544 2.544a2.154 2.154 0 0 0 1.472.584 2.011 2.011 0 0 0 1.436-.671L35 28l6.747 7.591a1 1 0 0 1 .253.664ZM19.5 30a3.5 3.5 0 1 0-3.5-3.5 3.5 3.5 0 0 0 3.5 3.5Zm0-5a1.5 1.5 0 1 1-1.5 1.5 1.5 1.5 0 0 1 1.5-1.5ZM26 11h8a1 1 0 0 0 0-2h-8a1 1 0 0 0 0 2ZM26 15h5a1 1 0 0 0 0-2h-5a1 1 0 0 0 0 2ZM34 49h-8a1 1 0 0 0 0 2h8a1 1 0 0 0 0-2ZM31 53h-5a1 1 0 0 0 0 2h5a1 1 0 0 0 0-2Z" fill="#ffffff" opacity="1" data-original="#000000"></path></g></svg>