<svg id="Capa_1" enable-background="new 0 0 512 512" fill="#fff" height="512" viewBox="0 0 512 512" width="512" xmlns="http://www.w3.org/2000/svg"><g><path d="m504.5 190.19c4.143 0 7.5-3.357 7.5-7.5v-163.19c0-10.752-8.748-19.5-19.5-19.5h-473c-10.752 0-19.5 8.748-19.5 19.5v473c0 10.752 8.748 19.5 19.5 19.5h473c10.752 0 19.5-8.748 19.5-19.5v-274.81c0-4.143-3.357-7.5-7.5-7.5s-7.5 3.357-7.5 7.5v274.81c0 2.481-2.019 4.5-4.5 4.5h-473c-2.481 0-4.5-2.019-4.5-4.5v-473c0-2.481 2.019-4.5 4.5-4.5h473c2.481 0 4.5 2.019 4.5 4.5v163.19c0 4.143 3.357 7.5 7.5 7.5z"/><path d="m353.67 411.09h16c7.444 0 13.5-6.056 13.5-13.5v-14.42h14.42c7.444 0 13.5-6.056 13.5-13.5v-16c0-7.444-6.056-13.5-13.5-13.5h-14.42v-183.84c0-15.163-12.337-27.5-27.5-27.5h-183.84v-14.42c0-7.444-6.056-13.5-13.5-13.5h-16c-7.444 0-13.5 6.056-13.5 13.5v14.42h-14.42c-7.444 0-13.5 6.056-13.5 13.5v16c0 7.444 6.056 13.5 13.5 13.5h14.42v61.93c0 4.143 3.357 7.5 7.5 7.5s7.5-3.357 7.5-7.5v-117.85h13v223.76c0 8.547 6.953 15.5 15.5 15.5h223.76v13h-239.76c-6.893 0-12.5-5.607-12.5-12.5v-86.91c0-4.143-3.357-7.5-7.5-7.5s-7.5 3.357-7.5 7.5v86.91c0 15.163 12.337 27.5 27.5 27.5h183.84v14.42c0 7.444 6.056 13.5 13.5 13.5zm-237.76-254.26v-13h12.92v13zm239.76-13c6.893 0 12.5 5.607 12.5 12.5v183.84h-13v-167.84c0-8.547-6.953-15.5-15.5-15.5h-167.84v-13zm-78.23 196.34-15.936-27.601 43.072-74.603c1.172-2.03 3.115-2.25 3.896-2.25s2.725.219 3.897 2.25l27.8 48.151v54.052h-62.729zm-105.61-168.34h167.84c.275 0 .5.225.5.5v83.788l-14.81-25.651c-3.525-6.105-9.839-9.75-16.889-9.75-7.049 0-13.361 3.646-16.886 9.75l-38.742 67.103-29.978-51.92c-3.526-6.104-9.838-9.749-16.885-9.749-7.048 0-13.359 3.645-16.886 9.75l-17.265 29.901v-103.722zm0 167.84v-34.12l30.255-52.398c1.173-2.031 3.114-2.251 3.896-2.251.78 0 2.722.22 3.895 2.25l50.245 87.02h-87.79c-.276-.001-.501-.226-.501-.501zm196.34 56.42h-13v-12.92h13z"/><path d="m248.271 235.217c14.612 0 26.5-11.888 26.5-26.5s-11.888-26.5-26.5-26.5-26.5 11.888-26.5 26.5 11.888 26.5 26.5 26.5zm0-38c6.341 0 11.5 5.159 11.5 11.5s-5.159 11.5-11.5 11.5-11.5-5.159-11.5-11.5 5.16-11.5 11.5-11.5z"/></g></svg>
