<svg xmlns="http://www.w3.org/2000/svg" version="1.1" xmlns:xlink="http://www.w3.org/1999/xlink" width="512" height="512" x="0" y="0" viewBox="0 0 16.933 16.933" style="enable-background:new 0 0 512 512" xml:space="preserve"><path d="M.24 0c-.346.053-.302.53.026.53 0 0 3.193.004 5.646.46 1.247.232 2.216.573 2.559 1.002.153.192.15.395.023.631-.154.287-.542.676-1.23 1.125-.836.547-1.358 1.005-1.633 1.446-.138.22-.214.441-.213.662.001.22.086.427.219.595.265.337.7.556 1.234.747.413.147.896.275 1.408.39l-3.493 3.495c-.995.015-1.92.104-2.698.358-.79.259-1.44.7-1.793 1.405-.447.895-.222 1.721.102 2.297.323.576.757.935.757.935.271.227.611-.18.34-.406 0 0-.36-.302-.632-.785-.261-.464-.446-1.099-.094-1.803.276-.552.779-.908 1.485-1.138.557-.182 1.237-.279 1.983-.317l-1.544 1.547a.265.265 0 0 0-.073.129l-.761 3.304a.263.263 0 0 0 .316.318l3.307-.763a.271.271 0 0 0 .128-.073l4.254-4.253c1.153.048 2.237.045 3.135-.127.926-.177 1.69-.55 2.053-1.273.141-.283.196-.56.146-.83a1.261 1.261 0 0 0-.392-.68c-.32-.304-.797-.533-1.319-.714L16.54 5.16a1.34 1.34 0 0 0 0-1.899L15.52 2.245c-.261-.262-.605-.396-.949-.396s-.688.134-.95.396l-.748.749-.014.013-1.272 1.272a.508.508 0 0 0-.006.007L8.724 7.143C8.095 7.01 7.512 6.865 7.05 6.7c-.493-.176-.847-.387-.996-.576a.43.43 0 0 1-.105-.27c-.001-.09.032-.22.132-.38.2-.32.669-.758 1.473-1.283.727-.475 1.178-.893 1.406-1.315.254-.47.18-.885-.07-1.207C8.432 1.08 7.312.714 6.009.471 3.475 0 .265.001.265.001H.241zm14.332 2.38a.81.81 0 0 1 .576.24l1.016 1.015a.81.81 0 0 1 0 1.153l-.575.575-2.169-2.168.576-.576a.81.81 0 0 1 .576-.239zm-1.526 1.189 2.168 2.168-.896.896-2.168-2.167zm-1.27 1.27 2.168 2.169-8.107 8.107-.157-.787a.265.265 0 0 0-.26-.213h-.752v-.751a.265.265 0 0 0-.213-.26l-.784-.157zm1.291 3.793c.645.205 1.115.432 1.374.679.14.132.21.258.234.392.025.134.006.29-.097.498-.261.522-.833.826-1.68.989-.701.134-1.576.159-2.523.134zM3.22 13.397l.92.183v.801c0 .145.118.264.264.264h.8l.184.92-.1.1-1.022.236-1.381-1.381.235-1.023zm-.476 1.73.912.914-1.186.273z" fill="#ffffff" opacity="1" data-original="#000000"></path></svg>