<svg xmlns="http://www.w3.org/2000/svg" version="1.1" xmlns:xlink="http://www.w3.org/1999/xlink" width="512" height="512" x="0" y="0" viewBox="0 0 24 24" style="enable-background:new 0 0 512 512" xml:space="preserve"><g><circle cx="5" cy="19" r="2" fill="#ffffff" opacity="1" data-original="#000000"></circle><path d="M20 21c-.6 0-1-.4-1-1 0-4-1.6-7.8-4.4-10.6S8 5 4 5c-.6 0-1-.4-1-1s.4-1 1-1c4.5 0 8.8 1.8 12 5s5 7.5 5 12c0 .6-.4 1-1 1zM13 21c-.6 0-1-.4-1-1 0-2.1-.8-4.1-2.3-5.7C8.1 12.8 6.1 12 4 12c-.6 0-1-.4-1-1s.4-1 1-1c2.7 0 5.2 1 7.1 2.9S14 17.3 14 20c0 .6-.4 1-1 1z" fill="#ffffff" opacity="1" data-original="#000000"></path></g></svg>