<?xml version="1.0" encoding="UTF-8" standalone="no"?>
<svg
   version="1.1"
   xml:space="preserve"
   width="682.66669"
   height="682.66669"
   viewBox="0 0 682.66669 682.66669"
   xmlns="http://www.w3.org/2000/svg"><defs><clipPath
       clipPathUnits="userSpaceOnUse"
       id="clipPath1022"><path
         d="M 0,512 H 512 V 0 H 0 Z" /></clipPath><clipPath
       clipPathUnits="userSpaceOnUse"
       id="clipPath1040"><path
         d="M 0,512 H 512 V 0 H 0 Z"
         id="path1038" /></clipPath></defs><g
     transform="matrix(1.3333333,0,0,-1.3333333,0,682.66667)"><g><g
         clip-path="url(#clipPath1022)"><path
           d="m 7.5,406.562 h 497 v 57.062 H 7.5 Z"
           style="fill:none;stroke:#ffffff;stroke-width:14.995;stroke-linecap:round;stroke-linejoin:round;stroke-miterlimit:10;stroke-dasharray:none;stroke-opacity:1"
           id="path1024" /><g
           id="g1026"
           transform="translate(7.5,72.6401)"><path
             d="M 0,0 V -24.264 H 497 V 275.67 m 0,33.988 v 24.264 H 0 V 33.959"
             style="fill:none;stroke:#ffffff;stroke-width:14.995;stroke-linecap:round;stroke-linejoin:round;stroke-miterlimit:10;stroke-dasharray:none;stroke-opacity:1"
             id="path1028" /></g></g></g><g
       id="g1030"
       transform="translate(426.3486,435.1074)"><path
         d="M 0,0 H -17.916 M -47.057,0 H -64.942 M 47.026,0 H 29.111"
         style="fill:none;stroke:#ffffff;stroke-width:14.995;stroke-linecap:round;stroke-linejoin:round;stroke-miterlimit:10;stroke-dasharray:none;stroke-opacity:1" /></g><g
       ><g
         clip-path="url(#clipPath1040)"><g
           transform="translate(395.7617,48.376)"><path
             d="m 0,0 v 297.951 c 0,10.686 -8.73,19.417 -19.389,19.417 h -177.449 l -82.715,-82.716 V 0 Z"
             style="fill:none;stroke:#ffffff;stroke-width:14.995;stroke-linecap:round;stroke-linejoin:round;stroke-miterlimit:10;stroke-dasharray:none;stroke-opacity:1"/></g><g
           transform="translate(117.7393,283.0283)"><path
             d="M 0,0 H 61.768 C 72.426,0 81.185,8.759 81.185,19.417 V 81.298"
             style="fill:none;stroke:#ffffff;stroke-width:14.995;stroke-linecap:round;stroke-linejoin:round;stroke-miterlimit:10;stroke-dasharray:none;stroke-opacity:1"
              /></g><path
           d="m 176.785,206.465 h 36.114 v 36.113 h -36.114 z"
           style="fill:none;stroke:#ffffff;stroke-width:14.995;stroke-linecap:round;stroke-linejoin:round;stroke-miterlimit:10;stroke-dasharray:none;stroke-opacity:1"
            /><path
           d="m 299.101,206.465 h 36.113 v 36.113 h -36.113 z"
           style="fill:none;stroke:#ffffff;stroke-width:14.995;stroke-linecap:round;stroke-linejoin:round;stroke-miterlimit:10;stroke-dasharray:none;stroke-opacity:1"
            /><path
           d="m 176.785,84.149 h 36.114 v 36.113 h -36.114 z"
           style="fill:none;stroke:#ffffff;stroke-width:14.995;stroke-linecap:round;stroke-linejoin:round;stroke-miterlimit:10;stroke-dasharray:none;stroke-opacity:1"
            /><path
           d="m 299.101,84.149 h 36.113 v 36.113 h -36.113 z"
           style="fill:none;stroke:#ffffff;stroke-width:14.995;stroke-linecap:round;stroke-linejoin:round;stroke-miterlimit:10;stroke-dasharray:none;stroke-opacity:1"
            /><g
           transform="translate(299.1006,224.5215)"><path
             d="M 0,0 H -86.201 M 18.057,-104.259 v 86.202 M -86.201,-122.316 H 0 m -104.259,104.259 v -86.202"
             style="fill:none;stroke:#ffffff;stroke-width:14.995;stroke-linecap:round;stroke-linejoin:round;stroke-miterlimit:10;stroke-dasharray:none;stroke-opacity:1" /></g><g
           transform="translate(310.8359,283.0283)"><path
             d="M 0,0 H -74.551 M 24.378,32.343 H -74.551"
             style="fill:none;stroke:#ffffff;stroke-width:14.995;stroke-linecap:round;stroke-linejoin:round;stroke-miterlimit:10;stroke-dasharray:none;stroke-opacity:1" /></g></g></g></g></svg>
