<svg xmlns="http://www.w3.org/2000/svg" version="1.1" width="512"
     height="512" x="0" y="0" viewBox="0 0 511.871 511.871" style="enable-background:new 0 0 512 512" xml:space="preserve"><path d="m444.79 270.028c6.974-55.59-37.138-110.284-93.025-114.574-2.261-65.795-63.166-123.772-129.113-122.314-65.94-1.459-126.858 56.523-129.112 122.314-24.389 2.406-46.979 13.271-64.225 31.028-63.831 64.692-16.386 177.125 74.586 176.515-.002.001 79.852.001 79.852.001v37.113c0 4.143 3.358 7.5 7.5 7.5h62.8c4.142 0 7.499-3.357 7.499-7.5v-37.113h33.816c-6.192 88.798 96.574 148.223 169.686 96.543 3.409-2.354 4.265-7.024 1.911-10.433-2.352-3.408-7.024-4.264-10.433-1.911-60.363 42.877-147.381-2.794-146.406-76.919-.001-51.504 41.901-93.407 93.406-93.407 72.627-.3 119.026 83.666 78.258 144.412-2.265 3.468-1.29 8.115 2.178 10.381 3.466 2.262 8.115 1.29 10.381-2.178 37.82-55.534 11.28-135.931-49.559-159.458zm-147.362 77.97h-35.876v-93.948h31.524c6.083 0 9.65-7.176 5.98-12.026l-70.424-93.048c-2.956-3.905-9.005-3.905-11.961 0l-21.58 28.513c-5.852 7.733 6.107 16.783 11.961 9.053l15.599-20.611 55.342 73.12h-23.942c-4.142 0-7.5 3.357-7.5 7.5v146.062h-47.8v-146.063c0-4.143-3.358-7.5-7.5-7.5h-23.941l15.803-20.88c5.853-7.733-6.108-16.784-11.96-9.053l-24.905 32.906c-3.672 4.85-.102 12.026 5.98 12.026h31.524v93.948h-79.854c-49.1.005-89.038-39.996-88.959-89.095-.929-46.758 39.4-88.376 86.14-88.915 4.049-.126 7.267-3.444 7.267-7.496.698-100.508 123.01-153.066 194.806-80.521 21.8 21.813 33.806 50.409 33.806 80.521 0 4.052 3.218 7.37 7.267 7.496 49.134.42 90.242 46.367 85.931 95.19-58.89-15.851-121.553 24.496-132.728 82.821z" fill="#ffffff"></path><path
        d="m403.615 292.191h-.104c-4.138.013-7.53 3.374-7.524 7.512.001.277.017.553.047.822v69.753c0 4.143 3.357 7.5 7.5 7.5h70.587c4.143 0 7.5-3.357 7.5-7.5-.002-43.023-34.978-78.031-78.006-78.087zm7.417 70.587v-55.144c28.805 3.427 51.717 26.339 55.144 55.144z"
        fill="#ffffff"></path><path d="m368.66 301.486c-9.652 0-9.668 15 0 15 9.652 0 9.668-15 0-15z" fill="#ffffff"></path><path
        d="m343.31 326.707c-9.652 0-9.668 15 0 15 9.652 0 9.668-15 0-15z" fill="#ffffff"></path><path
        d="m333.966 361.225c-9.652 0-9.668 15 0 15 9.652 0 9.668-15 0-15z" fill="#ffffff"></path><path
        d="m343.133 410.789c9.652 0 9.668-15 0-15-9.652 0-9.668 15 0 15z" fill="#ffffff"></path><path
        d="m368.354 421.14c-9.652 0-9.668 15 0 15 9.652 0 9.668-15 0-15z" fill="#ffffff"></path><path
        d="m402.872 445.483c9.652 0 9.668-15 0-15-9.652 0-9.668 15 0 15z" fill="#ffffff"></path><path
        d="m437.436 436.316c9.652 0 9.668-15 0-15-9.652 0-9.668 15 0 15z" fill="#ffffff"></path><path
        d="m462.787 411.095c9.652 0 9.668-15 0-15-9.652 0-9.668 15 0 15z" fill="#ffffff"></path><path
        d="m255.828 429.796h-66.351c-9.916.307-9.909 14.696 0 15h66.351c9.916-.307 9.908-14.697 0-15z" fill="#ffffff"></path><path
        d="m255.828 463.631h-66.351c-9.916.307-9.909 14.696 0 15h66.351c9.916-.307 9.908-14.697 0-15z" fill="#ffffff"></path></svg>
