<?xml version="1.0" encoding="UTF-8"?>
<svg width="250px" height="250px" viewBox="0 0 250 250" version="1.1" xmlns="http://www.w3.org/2000/svg" xmlns:xlink="http://www.w3.org/1999/xlink">
    <g stroke="none" stroke-width="1" fill="none" fill-rule="evenodd">
        <g transform="translate(-798.000000, -502.000000)" fill="#FFFFFF">
            <g transform="translate(798.000000, 502.000000)">
                <path d="M246.8165,0.54925 L153.599,93.59675 L168.8015,93.59675 C192.6315,93.59675 206.654,108.52175 206.654,124.92175 C206.654,137.75675 197.9565,147.21675 188.7665,151.34425 C187.2865,152.00675 187.339,154.02925 188.849,154.62425 C199.554,158.83925 207.2665,170.05425 207.2665,183.15675 C207.2665,201.77175 194.884,216.51675 170.869,216.51675 L104.8315,216.51675 C103.794,216.51675 102.954,215.68925 102.954,214.67175 L102.954,144.14925 L0.644,246.27175 C-0.731,247.64425 0.239,249.99925 2.1815,249.99925 L248.324,249.99925 C249.2515,249.99925 249.999,249.24675 249.999,248.31925 L249.999,1.87425 C249.999,0.20925 247.994,-0.62575 246.8165,0.54925 M131.4715,193.47675 L164.114,193.47675 C174.0565,193.47675 180.059,188.31675 180.059,179.47175 C180.059,171.73675 174.4365,165.46425 164.114,165.46425 L131.4715,165.46425 C130.434,165.46425 129.594,166.28925 129.594,167.30925 L129.594,191.63175 C129.594,192.65175 130.434,193.47675 131.4715,193.47675 M129.594,140.58675 L129.594,118.47425 C129.594,117.45675 130.434,116.62925 131.4715,116.62925 L162.989,116.62925 C171.994,116.62925 177.6215,121.97175 177.6215,129.52925 C177.6215,137.45175 171.994,142.42925 162.989,142.42925 L131.4715,142.42925 C130.434,142.42925 129.594,141.60425 129.594,140.58675" id="BC_Icon_White"></path>
            </g>
        </g>
    </g>
</svg>
