<svg data-v-3e635290="" width="147px" height="80px" xmlns="http://www.w3.org/2000/svg">
    <g fill="#fff"><path clip-rule="evenodd" d="M62.065 17.655c.31-.795.465-1.717.465-2.766s-.158-1.971-.474-2.766c-.316-.796-.75-1.465-1.299-2.007a5.347 5.347 0 00-1.93-1.22 6.759 6.759 0 00-2.353-.406 6.58 6.58 0 00-2.309.407 5.443 5.443 0 00-1.931 1.22c-.556.541-.998 1.21-1.326 2.006-.328.795-.492 1.717-.492 2.766s.159 1.971.475 2.766c.316.796.748 1.461 1.299 1.997.55.537 1.194.94 1.931 1.211a6.755 6.755 0 002.353.407c.854 0 1.653-.135 2.396-.407a5.215 5.215 0 001.922-1.21c.538-.537.963-1.202 1.273-1.998zm-8.603-1.14a5.604 5.604 0 01-.219-1.626c0-.59.073-1.128.22-1.618.146-.489.357-.907.632-1.254a2.881 2.881 0 011.01-.814c.397-.194.853-.291 1.369-.291.503 0 .956.094 1.36.283.404.188.743.456 1.018.804.275.348.486.766.633 1.255.146.489.219 1.034.219 1.635 0 .6-.073 1.143-.22 1.626a3.724 3.724 0 01-.632 1.246 2.775 2.775 0 01-1.018.804 3.174 3.174 0 01-1.36.284c-.516 0-.972-.095-1.37-.284a2.788 2.788 0 01-1.01-.804 3.72 3.72 0 01-.632-1.246z" fill-rule="evenodd"/><path d="M69.417 18.92c.386 0 .705-.033.956-.098.252-.065.454-.153.606-.266a.886.886 0 00.316-.397c.059-.153.088-.324.088-.513 0-.4-.187-.733-.562-.998-.374-.265-1.018-.551-1.93-.858-.399-.14-.797-.303-1.195-.486a4.384 4.384 0 01-1.07-.69 3.293 3.293 0 01-.773-1.007c-.199-.395-.298-.875-.298-1.44s.105-1.076.316-1.53c.21-.453.509-.839.895-1.157a4.088 4.088 0 011.404-.734c.55-.17 1.17-.257 1.861-.257.82 0 1.528.09 2.125.266.596.177 1.088.371 1.474.584l-.79 2.174a7.504 7.504 0 00-1.132-.469c-.416-.135-.916-.203-1.501-.203-.656 0-1.127.092-1.413.274-.287.183-.43.463-.43.84 0 .224.052.412.157.565.106.153.255.292.448.416.193.123.416.235.667.335.252.1.53.203.834.31.632.236 1.182.468 1.65.698.468.23.858.498 1.168.804.31.307.541.666.694 1.079.151.412.228.913.228 1.502 0 1.143-.399 2.03-1.194 2.66-.796.63-1.996.946-3.6.946a9.454 9.454 0 01-2.607-.336 6.445 6.445 0 01-1.466-.601l.773-2.192c.363.201.81.38 1.344.54.532.159 1.185.238 1.957.238zM86.275 8.773v2.351h-3.67v9.899h-2.738v-9.899h-3.67V8.773zM89.317 21.023h2.739V8.773h-2.74zM104.315 21.023a61.74 61.74 0 00-2.545-4.154 42.257 42.257 0 00-2.914-3.872v8.026h-2.704V8.773h2.23c.385.389.813.866 1.281 1.432.468.565.945 1.17 1.431 1.812.485.642.968 1.308 1.448 1.997.48.69.93 1.352 1.352 1.988v-7.23h2.721v12.25zM116.644 10.894c-1.275 0-2.197.357-2.765 1.07-.568.713-.851 1.687-.851 2.925 0 .6.07 1.146.21 1.635.141.489.351.91.632 1.264.281.353.632.628 1.054.822.421.194.912.291 1.474.291.304 0 .565-.006.782-.017.216-.012.406-.035.57-.07v-4.26h2.739v6.062c-.328.13-.855.268-1.58.415-.726.147-1.621.222-2.686.222-.913 0-1.741-.142-2.484-.425a5.195 5.195 0 01-1.906-1.237c-.526-.542-.933-1.208-1.219-1.998-.288-.789-.43-1.69-.43-2.704 0-1.025.158-1.933.474-2.722.316-.79.748-1.459 1.299-2.007a5.464 5.464 0 011.94-1.246 6.625 6.625 0 012.378-.424 9.585 9.585 0 012.748.38 5.46 5.46 0 011.29.557l-.79 2.21a7.16 7.16 0 00-1.29-.522 5.454 5.454 0 00-1.589-.22zM124.321 21.023V8.773h8.216v2.316h-5.477v2.403h4.863v2.263h-4.863v2.952h5.881v2.316z"/><path clip-rule="evenodd" d="M144.006 9.612c-.972-.654-2.37-.98-4.196-.98-.503 0-1.074.023-1.711.07-.638.047-1.256.13-1.852.247v12.074h2.738V16.55h1.352c.235.283.47.598.705.946a31.545 31.545 0 011.419 2.307c.228.413.454.819.678 1.22h3.061c-.21-.448-.438-.904-.684-1.37a24.15 24.15 0 00-.764-1.343c-.263-.43-.53-.843-.799-1.238a16.868 16.868 0 00-.772-1.052c.737-.306 1.302-.728 1.694-1.264.392-.536.588-1.234.588-2.094 0-1.38-.486-2.396-1.457-3.05zM139.433 11c.158-.012.336-.018.535-.018.878 0 1.542.127 1.993.38.451.254.676.68.676 1.282 0 .625-.222 1.067-.667 1.326-.445.26-1.183.388-2.212.388h-.773v-3.323l.448-.035z" fill-rule="evenodd"/><path d="M44.002 8.872h2.756V21.08h-2.756V15.9h-4.627v5.179H36.62V8.872h2.755v4.668h4.627z"/><path clip-rule="evenodd" d="M17.817.329v8.73l7.053 4.124v-9.26zM0 .329v13.699h22.937l-6.979-3.836-9.09-.004V4.016zm17.817 25.472v-6.118l-9.16-.007c.008.04-7.095-3.897-7.095-3.897l23.308.11v13.699zM0 16.85V25.8l6.867 3.595v-8.52z" fill-rule="evenodd"/></g>
</svg>
