<svg xmlns="http://www.w3.org/2000/svg" viewBox="0 0 1154 338" width="64" height="64"><path d="M1065.573,336.158a84.71,84.71,0,0,1-16.989-1.718,88,88,0,0,1-58.06-41.465l-.316-.581c-6.285-12.564-2.151-27.344,9.605-34.4a25.152,25.152,0,0,1,12.92-3.572,25.589,25.589,0,0,1,22.253,13.068c.259.459.556.956.866,1.434l2.706,3.682,3.637,3.676a35.477,35.477,0,0,0,16.588,8.023,36.487,36.487,0,0,0,28.6-6.537,34.614,34.614,0,0,0,14.36-25.871,35.747,35.747,0,0,0-9.941-27.764s-76.832-79.8-80.279-83.5a94.175,94.175,0,0,1-9.265-11c-10.84-15.365-14.23-33.48-12.557-51.412a83.4,83.4,0,0,1,10.819-35.534s3.52-5.953,4.556-7.465c4.07-5.936,12.08-13.612,17.57-17.9a90.371,90.371,0,0,1,14.744-8.856,84.035,84.035,0,0,1,109.6,33.824,24.914,24.914,0,0,1,2.654,19.308A25.451,25.451,0,0,1,1137.5,77.275a24.414,24.414,0,0,1-12.455,3.385,25.379,25.379,0,0,1-22.1-13,33.4,33.4,0,0,0-22.364-15.806,34.631,34.631,0,0,0-27.117,6.1,33.05,33.05,0,0,0-12.829,23.92,33.616,33.616,0,0,0,9.153,25.935l78.549,81a87.834,87.834,0,0,1,24.36,66.922c-2.235,25.186-14.754,48.008-34.359,62.7a88.507,88.507,0,0,1-52.762,17.732m-248.6-.033a84.584,84.584,0,0,0,84.479-84.492V84.528a84.483,84.483,0,0,0-168.965,0V251.633a84.585,84.585,0,0,0,84.486,84.492m0-285.064c18.145,0,33.473,15.322,33.473,33.467V251.633a33.514,33.514,0,0,1-33.473,33.474A33.118,33.118,0,0,1,783.5,251.633V84.528a33.511,33.511,0,0,1,33.481-33.467M437.557,66.55V310.6a25.5,25.5,0,0,0,51.005,0V172.4Zm138.356,97.3V25.538a25.506,25.506,0,0,1,51.011,0V269.706ZM626.5,305.105v5.45a25.6,25.6,0,0,1-48.363,11.565L437.876,31.358v-5.82A25.273,25.273,0,0,1,452.421,2.613a25.232,25.232,0,0,1,34.051,11.892Zm-379.823,31.02a84.591,84.591,0,0,0,84.48-84.492V84.528a84.483,84.483,0,0,0-168.965,0V251.633a84.589,84.589,0,0,0,84.485,84.492m0-285.064a33.965,33.965,0,0,1,33.474,33.467V251.633a33.475,33.475,0,1,1-66.948,0V84.528a33.512,33.512,0,0,1,33.474-33.467M0,307.917a27.819,27.819,0,1,0,55.637,0V27.818A27.819,27.819,0,0,0,0,27.818Z" style="fill:#fff"/></svg>
