<?xml version="1.0" encoding="UTF-8"?>
<svg width="64px" height="64px" viewBox="0 0 572 371" version="1.1" xmlns="http://www.w3.org/2000/svg">
    <g stroke="none" stroke-width="1" fill="none" fill-rule="evenodd">
        <g transform="translate(90.000000, 70.000000)" fill="#FFFFFF">
            <path d="M143.5837,76.4324 L200.0487,19.9684 C203.8847,16.1324 208.9907,14.0204 214.4317,14.0204 C219.8677,14.0204 224.9727,16.1304 228.8057,19.9634 L233.2057,24.3644 L242.0047,15.5644 L237.6047,11.1634 C231.4257,4.9854 223.1957,1.5804 214.4277,1.5804 C205.6627,1.5814 197.4317,4.9874 191.2497,11.1684 L134.7847,67.6334 L143.5837,76.4324 Z"></path>
            <path d="M218.9558,38.6121 L210.1568,29.8131 L153.6918,86.2771 C145.7628,94.2071 132.8618,94.2091 124.9358,86.2821 C117.0068,78.3511 117.0068,65.4501 124.9358,57.5201 L173.6558,8.8001 L164.8568,0.0001 L116.1358,48.7201 C103.3548,61.5021 103.3548,82.3001 116.1358,95.0821 C122.3168,101.2601 130.5468,104.6651 139.3098,104.6651 C148.0768,104.6651 156.3098,101.2591 162.4918,95.0771 L218.9558,38.6121 Z"></path>
            <path d="M275.1619,48.7205 C268.9819,42.5415 260.7519,39.1375 251.9839,39.1375 C243.2179,39.1385 234.9859,42.5435 228.8059,48.7255 L172.3419,105.1895 L181.1409,113.9895 L237.6049,57.5245 C245.5359,49.5945 258.4359,49.5955 266.3619,57.5205 C270.1969,61.3545 272.3089,66.4615 272.3089,71.9005 C272.3089,77.3405 270.1969,82.4485 266.3619,86.2825 L217.6409,135.0025 L226.4399,143.8015 L275.1619,95.0815 C287.9429,82.3005 287.9429,61.5015 275.1619,48.7205"></path>
            <path d="M247.7146,67.3699 L191.2496,123.8339 C183.3186,131.7629 170.4196,131.7649 162.4916,123.8389 L158.0926,119.4379 L149.2926,128.2379 L153.6926,132.6369 C159.8716,138.8169 168.1016,142.2219 176.8706,142.2219 C185.6356,142.2209 193.8666,138.8149 200.0486,132.6339 L256.5136,76.1699 L247.7146,67.3699 Z"></path>
            <path d="M6.0554,217.5691 C6.4194,219.3561 7.2714,220.7551 8.6114,221.7631 C9.9514,222.7731 11.7134,223.2771 13.8974,223.2771 C16.0484,223.2771 17.7104,222.7811 18.8854,221.7881 C20.0594,220.7961 20.6474,219.4891 20.6474,217.8671 C20.6474,217.0731 20.4904,216.4031 20.1764,215.8571 C19.8614,215.3111 19.4234,214.8481 18.8604,214.4671 C18.2974,214.0881 17.6024,213.7641 16.7764,213.5001 C15.9484,213.2351 15.0214,212.9541 13.9964,212.6561 L11.3164,211.9121 C9.7284,211.4821 8.3054,210.9611 7.0484,210.3481 C5.7904,209.7361 4.7154,209.0161 3.8224,208.1891 C2.9294,207.3621 2.2504,206.4111 1.7874,205.3351 C1.3234,204.2601 1.0924,203.0101 1.0924,201.5881 C1.0924,200.0991 1.3904,198.7261 1.9854,197.4681 C2.5814,196.2121 3.4254,195.1351 4.5164,194.2421 C5.6094,193.3491 6.9314,192.6461 8.4874,192.1321 C10.0424,191.6211 11.7954,191.3641 13.7484,191.3641 C17.4214,191.3641 20.3324,192.2321 22.4834,193.9691 C24.6344,195.7071 25.8914,198.0311 26.2564,200.9431 L20.3004,201.4391 C19.9354,199.9501 19.2084,198.7921 18.1164,197.9651 C17.0244,197.1381 15.5024,196.7241 13.5504,196.7241 C11.7294,196.7241 10.3064,197.1461 9.2814,197.9901 C8.2554,198.8341 7.7424,199.9181 7.7424,201.2411 C7.7424,202.0021 7.8914,202.6381 8.1894,203.1511 C8.4874,203.6651 8.9174,204.1111 9.4804,204.4911 C10.0424,204.8721 10.7284,205.2111 11.5394,205.5081 C12.3504,205.8061 13.2684,206.1221 14.2944,206.4521 L16.8264,207.2461 C18.4134,207.7421 19.8454,208.2631 21.1184,208.8091 C22.3924,209.3551 23.4764,210.0091 24.3694,210.7701 C25.2634,211.5311 25.9494,212.4411 26.4294,213.5001 C26.9094,214.5591 27.1494,215.8661 27.1494,217.4211 C27.1494,219.0761 26.8184,220.5901 26.1564,221.9621 C25.4944,223.3361 24.5684,224.5021 23.3774,225.4611 C22.1864,226.4211 20.7714,227.1661 19.1334,227.6941 C17.4954,228.2231 15.6844,228.4891 13.6994,228.4891 C10.0264,228.4891 6.9654,227.6291 4.5164,225.9081 C2.0684,224.1871 0.5624,221.5901 0.0004,218.1151 L6.0554,217.5691 Z"></path>
            <path d="M52.4617,196.823 C50.6747,196.823 49.0787,197.154 47.6717,197.814 C46.2657,198.475 45.0747,199.391 44.0987,200.563 C43.1227,201.736 42.3777,203.124 41.8647,204.724 C41.3517,206.327 41.0957,208.069 41.0957,209.951 C41.0957,211.834 41.3607,213.584 41.8897,215.203 C42.4187,216.821 43.1717,218.224 44.1487,219.414 C45.1237,220.602 46.3157,221.535 47.7217,222.213 C49.1277,222.889 50.7247,223.227 52.5117,223.227 C54.2977,223.227 55.8947,222.906 57.3007,222.262 C58.7067,221.618 59.8987,220.718 60.8747,219.561 C61.8497,218.406 62.6027,217.01 63.1327,215.376 C63.6617,213.741 63.9267,211.949 63.9267,210.001 C63.9267,208.085 63.6617,206.318 63.1327,204.7 C62.6027,203.083 61.8497,201.695 60.8747,200.539 C59.8987,199.384 58.6987,198.475 57.2757,197.814 C55.8527,197.154 54.2487,196.823 52.4617,196.823 M52.5117,191.463 C55.1917,191.463 57.6397,191.918 59.8567,192.828 C62.0737,193.738 63.9597,195.011 65.5147,196.649 C67.0697,198.288 68.2767,200.248 69.1377,202.531 C69.9987,204.814 70.4287,207.312 70.4287,210.025 C70.4287,212.839 69.9737,215.378 69.0637,217.644 C68.1527,219.911 66.8557,221.871 65.1677,223.525 L69.9327,229.134 L69.9327,230.871 L63.8777,230.871 L60.5517,226.802 C59.3937,227.331 58.1517,227.744 56.8297,228.042 C55.5057,228.34 54.0827,228.489 52.5607,228.489 C49.8147,228.489 47.3407,228.033 45.1407,227.124 C42.9407,226.214 41.0707,224.94 39.5327,223.302 C37.9937,221.664 36.8027,219.713 35.9597,217.445 C35.1157,215.179 34.6937,212.706 34.6937,210.025 C34.6937,207.312 35.1157,204.823 35.9597,202.555 C36.8027,200.29 38.0017,198.337 39.5577,196.699 C41.1117,195.061 42.9897,193.779 45.1907,192.852 C47.3907,191.927 49.8317,191.463 52.5117,191.463"></path>
            <path d="M94.1023,223.4753 C96.6503,223.4753 98.6353,222.6903 100.0583,221.1183 C101.4803,219.5463 102.1923,217.1393 102.1923,213.8963 L102.1923,192.1583 L108.4463,192.1583 L108.4463,214.0453 C108.4463,216.6263 108.1153,218.8343 107.4533,220.6713 C106.7913,222.5073 105.8483,224.0133 104.6243,225.1883 C103.4003,226.3633 101.8943,227.2233 100.1083,227.7693 C98.3213,228.3153 96.3193,228.5873 94.1023,228.5873 C91.8523,228.5873 89.8423,228.3153 88.0723,227.7693 C86.3013,227.2233 84.8043,226.3633 83.5803,225.1883 C82.3563,224.0133 81.4133,222.5073 80.7513,220.6713 C80.0893,218.8343 79.7593,216.6263 79.7593,214.0453 L79.7593,192.1583 L86.0123,192.1583 L86.0123,213.8963 C86.0123,217.1393 86.7233,219.5463 88.1463,221.1183 C89.5693,222.6903 91.5543,223.4753 94.1023,223.4753"></path>
            <path d="M126.1643,212.2585 L137.9263,212.2585 L135.9913,206.6005 C135.2293,204.3845 134.6183,202.5805 134.1553,201.1915 C133.6913,199.8015 133.2773,198.5775 132.9133,197.5185 L131.3753,197.5185 C131.1763,198.0805 130.9783,198.6435 130.7803,199.2055 C130.5813,199.7685 130.3583,200.3975 130.1103,201.0915 C129.8613,201.7865 129.5883,202.5805 129.2903,203.4745 C128.9933,204.3665 128.6283,205.4095 128.1993,206.6005 L126.1643,212.2585 Z M114.8973,226.0565 L127.5543,192.1575 L136.9343,192.1575 L149.4413,226.0565 L149.4413,227.7935 L143.2873,227.7935 L139.7133,217.6185 L124.2783,217.6185 L120.7053,227.7935 L114.8973,227.7935 L114.8973,226.0565 Z"></path>
            <path d="M163.487,208.4373 L168.897,208.4373 C171.28,208.4373 173.157,208.0023 174.53,207.1343 C175.903,206.2653 176.591,204.8473 176.591,202.8783 C176.591,200.8783 175.895,199.4853 174.505,198.6983 C173.116,197.9123 171.247,197.5183 168.897,197.5183 L163.487,197.5183 L163.487,208.4373 Z M184.382,227.7933 L178.376,227.7933 L167.507,213.7973 L163.487,213.7973 L163.487,227.7933 L157.333,227.7933 L157.333,192.1583 L168.897,192.1583 C170.716,192.1583 172.446,192.2823 174.083,192.5303 C175.721,192.7783 177.202,193.3493 178.526,194.2423 C181.337,196.0943 182.745,198.8903 182.745,202.6273 C182.745,204.2493 182.505,205.6633 182.024,206.8713 C181.544,208.0783 180.907,209.1033 180.114,209.9473 C179.319,210.7913 178.401,211.4773 177.36,212.0053 C176.317,212.5353 175.233,212.9323 174.108,213.1963 L184.382,226.0553 L184.382,227.7933 Z"></path>
            <polygon points="192.2234 192.158 215.3024 192.158 215.3024 197.617 198.3284 197.617 198.3284 206.948 214.1114 206.948 214.1114 212.308 198.3284 212.308 198.3284 222.334 215.6504 222.334 215.6504 227.794 192.2234 227.794"></polygon>
            <path d="M229.5476,217.5691 C229.9106,219.3561 230.7636,220.7551 232.1036,221.7631 C233.4436,222.7731 235.2056,223.2771 237.3896,223.2771 C239.5396,223.2771 241.2016,222.7811 242.3776,221.7881 C243.5516,220.7961 244.1396,219.4891 244.1396,217.8671 C244.1396,217.0731 243.9826,216.4031 243.6676,215.8571 C243.3536,215.3111 242.9146,214.8481 242.3526,214.4671 C241.7896,214.0881 241.0946,213.7641 240.2686,213.5001 C239.4406,213.2351 238.5136,212.9541 237.4876,212.6561 L234.8086,211.9121 C233.2206,211.4821 231.7966,210.9611 230.5396,210.3481 C229.2816,209.7361 228.2066,209.0161 227.3146,208.1891 C226.4206,207.3621 225.7416,206.4111 225.2786,205.3351 C224.8156,204.2601 224.5836,203.0101 224.5836,201.5881 C224.5836,200.0991 224.8816,198.7261 225.4776,197.4681 C226.0726,196.2121 226.9166,195.1351 228.0086,194.2421 C229.1006,193.3491 230.4236,192.6461 231.9796,192.1321 C233.5336,191.6211 235.2876,191.3641 237.2396,191.3641 C240.9126,191.3641 243.8236,192.2321 245.9756,193.9691 C248.1256,195.7071 249.3836,198.0311 249.7476,200.9431 L243.7916,201.4391 C243.4276,199.9501 242.6996,198.7921 241.6086,197.9651 C240.5166,197.1381 238.9936,196.7241 237.0416,196.7241 C235.2216,196.7241 233.7986,197.1461 232.7736,197.9901 C231.7476,198.8341 231.2346,199.9181 231.2346,201.2411 C231.2346,202.0021 231.3836,202.6381 231.6816,203.1511 C231.9796,203.6651 232.4086,204.1111 232.9716,204.4911 C233.5336,204.8721 234.2206,205.2111 235.0316,205.5081 C235.8426,205.8061 236.7606,206.1221 237.7856,206.4521 L240.3176,207.2461 C241.9056,207.7421 243.3366,208.2631 244.6106,208.8091 C245.8836,209.3551 246.9686,210.0091 247.8606,210.7701 C248.7546,211.5311 249.4416,212.4411 249.9216,213.5001 C250.4006,214.5591 250.6416,215.8661 250.6416,217.4211 C250.6416,219.0761 250.3106,220.5901 249.6486,221.9621 C248.9856,223.3361 248.0606,224.5021 246.8686,225.4611 C245.6776,226.4211 244.2636,227.1661 242.6256,227.6941 C240.9866,228.2231 239.1756,228.4891 237.1906,228.4891 C233.5186,228.4891 230.4566,227.6291 228.0086,225.9081 C225.5596,224.1871 224.0546,221.5901 223.4916,218.1151 L229.5476,217.5691 Z"></path>
            <path d="M265.8777,208.7351 L271.8337,208.7351 C272.9257,208.7351 273.9267,208.6451 274.8367,208.4641 C275.7457,208.2841 276.5407,207.9811 277.2187,207.5541 C277.8977,207.1281 278.4267,206.5541 278.8077,205.8321 C279.1877,205.1111 279.3777,204.2251 279.3777,203.1751 C279.3777,202.0931 279.1877,201.1841 278.8077,200.4461 C278.4267,199.7081 277.9047,199.1261 277.2437,198.6991 C276.5817,198.2721 275.7957,197.9691 274.8867,197.7891 C273.9757,197.6091 272.9917,197.5181 271.9337,197.5181 L265.8777,197.5181 L265.8777,208.7351 Z M259.6737,192.1581 L272.6777,192.1581 C275.0927,192.1581 277.1197,192.4391 278.7577,193.0021 C280.3957,193.5641 281.7187,194.3411 282.7287,195.3351 C283.7367,196.3271 284.4657,197.4931 284.9117,198.8341 C285.3577,200.1731 285.5817,201.6211 285.5817,203.1761 C285.5817,205.0301 285.2757,206.6421 284.6637,208.0151 C284.0517,209.3881 283.1667,210.5211 282.0087,211.4151 C280.8497,212.3081 279.4437,212.9781 277.7897,213.4251 C276.1347,213.8721 274.2657,214.0951 272.1817,214.0951 L265.8777,214.0951 L265.8777,227.7941 L259.6737,227.7941 L259.6737,192.1581 Z"></path>
            <path d="M298.4861,212.2585 L310.2491,212.2585 L308.3131,206.6005 C307.5511,204.3845 306.9391,202.5805 306.4761,201.1915 C306.0131,199.8015 305.5991,198.5775 305.2361,197.5185 L303.6971,197.5185 C303.4991,198.0805 303.3001,198.6435 303.1011,199.2055 C302.9031,199.7685 302.6791,200.3975 302.4311,201.0915 C302.1831,201.7865 301.9111,202.5805 301.6131,203.4745 C301.3151,204.3665 300.9511,205.4095 300.5211,206.6005 L298.4861,212.2585 Z M287.2191,226.0565 L299.8761,192.1575 L309.2561,192.1575 L321.7631,226.0565 L321.7631,227.7935 L315.6091,227.7935 L312.0361,217.6185 L296.6001,217.6185 L293.0261,227.7935 L287.2191,227.7935 L287.2191,226.0565 Z"></path>
            <path d="M359.4832,218.364 C358.9212,219.754 358.1842,221.062 357.2752,222.289 C356.3642,223.516 355.2642,224.591 353.9742,225.509 C352.6842,226.427 351.1862,227.153 349.4822,227.687 C347.7782,228.221 345.8842,228.489 343.7992,228.489 C341.1522,228.489 338.7452,228.025 336.5782,227.098 C334.4112,226.173 332.5612,224.89 331.0292,223.253 C329.4972,221.614 328.3142,219.663 327.4802,217.396 C326.6462,215.13 326.2302,212.673 326.2302,210.025 C326.2302,207.379 326.6462,204.922 327.4802,202.655 C328.3142,200.389 329.5042,198.428 331.0532,196.773 C332.6022,195.12 334.4612,193.82 336.6282,192.878 C338.7952,191.934 341.2182,191.463 343.8992,191.463 C347.8022,191.463 351.0712,192.374 353.7012,194.193 C356.3322,196.012 358.1932,198.428 359.2852,201.439 L352.9822,202.679 C352.1212,200.86 350.9212,199.428 349.3832,198.386 C347.8442,197.344 345.9832,196.823 343.7992,196.823 C342.0462,196.823 340.4822,197.161 339.1092,197.837 C337.7362,198.513 336.5782,199.444 335.6352,200.631 C334.6922,201.817 333.9722,203.218 333.4762,204.834 C332.9802,206.449 332.7322,208.179 332.7322,210.025 C332.7322,211.904 332.9882,213.643 333.5012,215.242 C334.0132,216.842 334.7582,218.225 335.7342,219.396 C336.7102,220.566 337.8932,221.48 339.2832,222.139 C340.6722,222.799 342.2612,223.129 344.0472,223.129 C346.3642,223.129 348.2742,222.566 349.7802,221.441 C351.2862,220.316 352.4522,218.943 353.2792,217.321 L359.4832,218.364 Z"></path>
            <polygon points="367.8708 192.158 390.9498 192.158 390.9498 197.617 373.9758 197.617 373.9758 206.948 389.7588 206.948 389.7588 212.308 373.9758 212.308 373.9758 222.334 391.2978 222.334 391.2978 227.794 367.8708 227.794"></polygon>
        </g>
    </g>
</svg>
