<svg width="427" height="121" viewBox="0 0 427 121" fill="none" xmlns="http://www.w3.org/2000/svg">
<path d="M51.5 112C79.9427 112 103 88.9427 103 60.5C103 32.0573 79.9427 9 51.5 9C23.0573 9 0 32.0573 0 60.5C0 88.9427 23.0573 112 51.5 112Z" fill="url(#paint0_linear_302_44)"/>
<path d="M58.0967 37.7955L61.4896 41.1798C59.8863 41.7927 57.6638 42.4759 55.1155 42.6877L55.113 42.6879C51.0951 43.0468 45.7878 42.1472 43.7724 41.7816L43.7704 41.7813C43.7549 41.7785 43.7395 41.7759 43.724 41.7732C43.2398 41.6878 42.7729 41.6055 42.3434 41.6398C41.8672 41.6778 41.4423 41.8557 41.0391 42.2579C40.8408 42.4557 40.6021 42.7547 40.5108 43.0956L31.503 69.2004L31.4994 69.2114C31.1341 70.3772 31.7149 71.6488 32.9187 72.0262C33.1126 72.0904 33.4042 72.1672 33.6518 72.1672C34.5463 72.1672 35.4379 71.5799 35.7404 70.6779C35.7406 70.6771 35.7409 70.6764 35.7412 70.6758L44.1535 46.3419C46.7486 46.7764 51.5906 47.493 55.5505 47.1393L55.5531 47.139C58.6821 46.839 61.8638 45.9557 64.9288 44.5495L68.5382 48.1498C67.195 50.7913 66.3742 53.6093 66.1338 56.6012C65.7203 60.8502 66.4393 66.2042 66.8747 68.9389L36.7046 79.3119L53.0601 62.9981C53.9401 62.1203 53.9609 60.7035 53.0538 59.8674C52.1739 58.9962 50.7602 58.9777 49.9244 59.8793L26.8589 82.8861C26.2919 83.3858 26 84.0395 26 84.7614C26 85.969 26.9964 87.1289 28.2571 86.9884C28.5541 86.9844 28.7814 86.9088 28.9578 86.8501L28.9687 86.8465L28.9734 86.8449L70.0038 72.6361C70.3447 72.5452 70.6441 72.3075 70.8424 72.1097C71.2355 71.7177 71.4364 71.3142 71.4847 70.8224C71.5294 70.367 71.4394 69.8545 71.3202 69.2594C70.954 67.0662 70.1125 61.3485 70.4727 57.0964C70.6344 55.1607 71.0887 53.3213 71.7924 51.5779L75.2641 55.0408L75.2994 55.0759L75.3421 55.1015C75.6825 55.3052 76.1816 55.5235 76.768 55.5235C77.3665 55.5235 77.8917 55.2959 78.3267 54.8647C79.2242 54.0372 79.2244 52.6167 78.3273 51.789L61.221 34.6654C60.3414 33.7882 58.9223 33.767 58.0845 34.6712C57.2106 35.5493 57.1921 36.9613 58.0967 37.7955Z" fill="white" stroke="white" stroke-width="0.946667"/>
<path d="M147.855 89V37.5118H131.955V27.626H174.793V37.5118H159.141V89H147.855ZM179.568 107.206C178.359 107.206 177.179 107.096 176.025 106.877C174.872 106.712 173.828 106.41 172.895 105.971V96.9086C173.609 97.0734 174.46 97.2381 175.449 97.4029C176.492 97.5676 177.453 97.65 178.332 97.65C180.803 97.65 182.588 97.0734 183.687 95.92C184.84 94.7667 185.856 93.2564 186.735 91.3891L189.7 84.469L189.536 93.531L170.011 44.1846H181.627L195.302 80.5971H191.183L204.776 44.1846H216.474L196.95 93.531C195.797 96.4418 194.396 98.9132 192.749 100.945C191.101 102.977 189.179 104.515 186.982 105.559C184.84 106.657 182.369 107.206 179.568 107.206ZM219.105 105.476V44.1846H229.238V53.0818L228.25 50.8575C229.788 48.441 231.874 46.5737 234.511 45.2556C237.147 43.8826 240.195 43.1961 243.655 43.1961C247.884 43.1961 251.701 44.2396 255.106 46.3265C258.511 48.4135 261.202 51.2145 263.179 54.7294C265.211 58.2444 266.227 62.1987 266.227 66.5923C266.227 70.9311 265.239 74.8854 263.262 78.4552C261.285 82.0251 258.593 84.8535 255.188 86.9405C251.783 88.9725 247.911 89.9886 243.573 89.9886C240.332 89.9886 237.339 89.357 234.593 88.0938C231.902 86.7757 229.76 84.9084 228.167 82.4919L229.897 80.35V105.476H219.105ZM242.337 80.1028C244.808 80.1028 247.005 79.5262 248.927 78.3728C250.85 77.2195 252.332 75.6268 253.376 73.5947C254.474 71.5626 255.024 69.2285 255.024 66.5923C255.024 63.9561 254.474 61.6494 253.376 59.6723C252.332 57.6402 250.85 56.0475 248.927 54.8942C247.005 53.6859 244.808 53.0818 242.337 53.0818C239.975 53.0818 237.833 53.6585 235.911 54.8118C234.044 55.9651 232.561 57.5853 231.463 59.6723C230.419 61.7044 229.897 64.011 229.897 66.5923C229.897 69.2285 230.419 71.5626 231.463 73.5947C232.561 75.6268 234.044 77.2195 235.911 78.3728C237.833 79.5262 239.975 80.1028 242.337 80.1028ZM292.414 89.9886C287.801 89.9886 283.764 88.9451 280.304 86.8581C276.844 84.7711 274.153 81.9427 272.231 78.3728C270.309 74.803 269.348 70.8487 269.348 66.5099C269.348 62.0064 270.309 58.0247 272.231 54.5647C274.208 51.0497 276.872 48.2762 280.222 46.2442C283.627 44.2121 287.417 43.1961 291.591 43.1961C295.105 43.1961 298.181 43.7727 300.817 44.9261C303.508 46.0794 305.788 47.6721 307.655 49.7042C309.522 51.7362 310.95 54.0704 311.939 56.7066C312.927 59.2878 313.422 62.0888 313.422 65.1095C313.422 65.8783 313.367 66.6747 313.257 67.4985C313.202 68.3223 313.065 69.0363 312.845 69.6404H278.245V61.4023H306.749L301.641 65.2742C302.135 62.7479 301.998 60.4961 301.229 58.519C300.515 56.5418 299.307 54.9766 297.604 53.8232C295.957 52.6699 293.952 52.0932 291.591 52.0932C289.339 52.0932 287.334 52.6699 285.577 53.8232C283.819 54.9216 282.474 56.5693 281.54 58.7661C280.661 60.908 280.332 63.5168 280.551 66.5923C280.332 69.3384 280.689 71.7823 281.622 73.9242C282.611 76.0112 284.039 77.6314 285.906 78.7847C287.828 79.9381 290.025 80.5147 292.497 80.5147C294.968 80.5147 297.055 79.993 298.758 78.9495C300.515 77.906 301.888 76.5055 302.877 74.7481L311.609 79.0319C310.73 81.1738 309.357 83.0686 307.49 84.7162C305.623 86.3638 303.399 87.6544 300.817 88.5881C298.291 89.5217 295.49 89.9886 292.414 89.9886ZM323.497 89V53.8232H315.589V44.1846H323.497V42.7018C323.497 39.2967 324.184 36.4133 325.557 34.0517C326.985 31.6352 328.962 29.7954 331.488 28.5322C334.015 27.269 337.008 26.6374 340.468 26.6374C341.127 26.6374 341.841 26.6924 342.61 26.8022C343.433 26.8571 344.12 26.9395 344.669 27.0493V36.3584C344.12 36.2486 343.598 36.1937 343.104 36.1937C342.665 36.1387 342.253 36.1113 341.868 36.1113C339.452 36.1113 337.584 36.6605 336.266 37.7589C334.948 38.8024 334.289 40.45 334.289 42.7018V44.1846H353.896V53.8232H334.289V89H323.497ZM351.672 89V26.6374H362.546V89H351.672ZM391.149 89.9886C386.755 89.9886 382.746 88.9725 379.121 86.9405C375.551 84.9084 372.695 82.1349 370.554 78.62C368.467 75.105 367.423 71.0958 367.423 66.5923C367.423 62.0888 368.467 58.0796 370.554 54.5647C372.695 51.0497 375.551 48.2762 379.121 46.2442C382.691 44.2121 386.7 43.1961 391.149 43.1961C395.543 43.1961 399.524 44.2121 403.094 46.2442C406.664 48.2762 409.492 51.0497 411.579 54.5647C413.721 58.0247 414.792 62.0339 414.792 66.5923C414.792 71.0958 413.721 75.105 411.579 78.62C409.437 82.1349 406.582 84.9084 403.012 86.9405C399.442 88.9725 395.488 89.9886 391.149 89.9886ZM391.149 80.1028C393.565 80.1028 395.68 79.5262 397.492 78.3728C399.36 77.2195 400.815 75.6268 401.858 73.5947C402.957 71.5077 403.506 69.1736 403.506 66.5923C403.506 63.9561 402.957 61.6494 401.858 59.6723C400.815 57.6402 399.36 56.0475 397.492 54.8942C395.68 53.6859 393.565 53.0818 391.149 53.0818C388.677 53.0818 386.508 53.6859 384.641 54.8942C382.773 56.0475 381.291 57.6402 380.192 59.6723C379.149 61.6494 378.627 63.9561 378.627 66.5923C378.627 69.1736 379.149 71.5077 380.192 73.5947C381.291 75.6268 382.773 77.2195 384.641 78.3728C386.508 79.5262 388.677 80.1028 391.149 80.1028Z" fill="black"/>
<defs>
<linearGradient id="paint0_linear_302_44" x1="7" y1="28" x2="79" y2="112" gradientUnits="userSpaceOnUse">
<stop stop-color="#84A6FF"/>
<stop offset="1" stop-color="#5053FF"/>
</linearGradient>
</defs>
</svg>