<svg width="22" height="16" xmlns="http://www.w3.org/2000/svg" xmlns:xlink="http://www.w3.org/1999/xlink" class="q3pG1Hm0QTwDGF317SELnw==">
    <defs>
        <path d="M18.266 2c-1.714 0-3.15 1.083-3.595 2.706C13.891 2.264 11.857 2 11.021 2c-.85 0-2.87.264-3.665 2.706C6.911 3.083 5.49 2 3.762 2 1.658 2 0 3.426 0 5.248 0 6.053.209 6.7.46 7.399l2.856 7.67c.961 2.548 2.912 2.918 3.985 2.918 1.686 0 3.01-.819 3.692-2.27.683 1.465 2.006 2.283 3.692 2.283 1.073 0 3.023-.383 3.985-2.93l2.884-7.697.028-.066c.028-.092.07-.185.097-.277.153-.436.32-.911.32-1.518C22.029 3.479 20.454 2 18.267 2Zm1.131 4.83-2.817 7.422c-.34.904-.912 1.566-1.987 1.566-1.007 0-1.606-.522-1.892-1.426l-1.687-4.94h-.041l-1.688 4.94c-.3.904-.898 1.413-1.892 1.413-1.075 0-1.647-.662-1.987-1.565l-2.79-7.372c-.231-.624-.34-1.006-.34-1.451 0-.688.68-1.235 1.647-1.235.803 0 1.374.496 1.551 1.222l1.892 5.882h.04l1.92-5.755c.259-.827.708-1.35 1.674-1.35s1.415.51 1.674 1.35l1.92 5.755h.04l1.892-5.882c.177-.726.748-1.222 1.551-1.222.953 0 1.647.56 1.647 1.502-.013.331-.177.675-.327 1.146Z"
              id="a"></path>
    </defs>
    <use fill="#ffffff" xlink:href="#a" transform="translate(0 -2)" fill-rule="evenodd"></use>
</svg>
